{"title":"THENKASI PATTANAM [2000] MALAYALAM ^^LTM^^","uid":4630926,"size":944146447,"categoryP":"video","categoryS":"movies","magnet":"?xt=urn:btih:51b4a486cd3ae0c66a59e54a5b3a32971bbffd5c&amp;dn=THENKASI+PATTANAM+%5B2000%5D+MALAYALAM+%5E%5ELTM%5E%5E&amp;tr=udp%3A%2F%2Ftracker.openbittorrent.com%3A80&amp;tr=udp%3A%2F%2Fopen.demonii.com%3A1337&amp;tr=udp%3A%2F%2Ftracker.coppersurfer.tk%3A6969&amp;tr=udp%3A%2F%2Fexodus.desync.com%3A6969","seeders":1,"leechers":0,"uploader":"L_T_M","files":-1,"time":1231385712,"description":"^^^^^^^^^^^^^^^^^^^^^^^^^^^^^^^^^^^^^^^^^^^^^^^^^^^^^^^^^^^^^^^^^^^^^^^\n^^^^^^^^^^^^^^^^^^^^^^^^^^^^^^^^^^^^^^^^^^^^^^^^^^^^^^^^^^^^^^^^^^^^^^^\n^^^^^^^^^^^^^^^^^^^^^^^^^^^^^^^^^^^^^^^^^^^^^^^^^^^^^^^^^^^^^^^^^^^^^^^\n^^^^^^^^^^^^^^^^^^^^^^^^^^^^^^^^^^^^^^^^^^^^^^^^^^^^^^^^^^^^^^^^^^^^^^^\n    _______________________________________________________________\n   d888888888888888888888888888888888888888888888888888888888888888b\n   Y888888888888888888888888888888888888888888888888888888888888888P\n                                 8888\n         __                      8888         __          __\n        d88b                     8888        d88b_      _d88b\n        8888                     8888        88888b_   d88888b\n        8888                     8888        8888888b_d8888888\n        8888                     8888        88888888888888888\n        8888                     8888        8888Y8888888P8888\n        8888                     8888        8888   Y888P 8888\n        8888                     8888        8888         8888\n        8888                     8888        8888         8888\n        8888                     8888        8888         8888\n        8888___________          8888        8888         8888\n        888888888888888b         8888        8888         8888\n        888888888888888P         8888        Y88P         Y88P\n                                 8888\n                                 d88b\n                                 Y88P\n\n\n^^^^^^^^^^^^^^^^^^^^^^^^^^^^^^^^^^^^^^^^^^^^^^^^^^^^^^^^^^^^^^^^^^^^^^^\n^^^^^^^^^^^^^^^^^^^^^^^^^^^^^^^^^^^^^^^^^^^^^^^^^^^^^^^^^^^^^^^^^^^^^^^\n^^^^^^^^^^^^^^^^^^^^^^^^^^^^^^^^^^^^^^^^^^^^^^^^^^^^^^^^^^^^^^^^^^^^^^^\n^^^^^^^^^^^^^^^^^^^^^^^^^^^^^^^^^^^^^^^^^^^^^^^^^^^^^^^^^^^^^^^^^^^^^^^\n\n\nTHENKASI PATTANAM [2000] \n\nDirection : Raffi,Meccartin\n\nIMDB Rating : 6.2\n\nIMDB Link : http://www.imdb.com/title/tt0334482/\n\nCast : Suresh Gopi,Lal,Dilip,Samyuktha Varma,.....\n\nPrentation : Moserbaer-Saina\n\n\nSEND IN YOUR COMMENTS...\n------------------------------------------------------------------------------ \n\n\n\nGeneral\n\nFormat                           : AVI\nFormat/Info                      : Audio Video Interleave\nFile size                        : 900 MiB\nDuration                         : 2h 1mn\nOverall bit rate                 : 1 037 Kbps\n\n\nVideo\nFormat                           : MPEG-4 Visual\nFormat settings, BVOP            : Yes\nFormat settings, QPel            : No\nFormat settings, GMC             : No warppoints\nFormat settings, Matrix          : Default\nCodec ID                         : DX50\nCodec ID/Hint                    : DivX 5\nDuration                         : 2h 1mn\nBit rate                         : 902 Kbps\nWidth                            : 480 pixels\nHeight                           : 240 pixels\nDisplay aspect ratio             : 2.000\nFrame rate                       : 25.000 fps\nResolution                       : 24 bits\nColorimetry                      : 4:2:0\nScan type                        : Progressive\nBits/(Pixel*Frame)               : 0.313\nStream size                      : 783 MiB (87%)\nWriting library                  : DivX 2816\n\nAudio\nFormat                           : MPEG Audio\nFormat version                   : Version 1\nFormat profile                   : Layer 3\nCodec ID                         : 55\nCodec ID/Hint                    : MP3\nDuration                         : 2h 1mn\nBit rate mode                    : Constant\nBit rate                         : 128 Kbps\nMinimum bit rate                 : 128 Kbps\nChannel(s)                       : 2 channels\nSampling rate                    : 44.1 KHz\nResolution                       : 16 bits\nVideo delay                      : 239ms\nStream size                      : 111 MiB (12%)\nAlignment                        : Split accross interleaves\nInterleave, duration             : 80 ms (2.00 video frames)\nInterleave, preload duration     : 500 ms\nWriting library                  : LAME3.97 \nEncoding settings                : CBR\n\n","torrent":{"xt":"urn:btih:51b4a486cd3ae0c66a59e54a5b3a32971bbffd5c","amp;dn":"THENKASI+PATTANAM+%5B2000%5D+MALAYALAM+%5E%5ELTM%5E%5E","amp;tr":["udp%3A%2F%2Ftracker.openbittorrent.com%3A80","udp%3A%2F%2Fopen.demonii.com%3A1337","udp%3A%2F%2Ftracker.coppersurfer.tk%3A6969","udp%3A%2F%2Fexodus.desync.com%3A6969"],"infoHash":"51b4a486cd3ae0c66a59e54a5b3a32971bbffd5c","infoHashBuffer":{"type":"Buffer","data":[81,180,164,134,205,58,224,198,106,89,229,74,91,58,50,151,27,191,253,92]},"announce":[],"urlList":[]}}